<svg xmlns="http://www.w3.org/2000/svg" viewBox="0 0 32 32" fill="none">
  <rect width="32" height="32" rx="8" fill="url(#op-bg)"/>
  <path
    d="M10.2 22V10h4.1c1.35 0 2.4.3 3.15.9.75.6 1.12 1.45 1.12 2.55 0 .72-.18 1.34-.54 1.86-.36.52-.86.9-1.5 1.14L18.8 22h-2.45l-1.95-4.95h-1.95V22H10.2Zm2.25-6.75h1.8c.62 0 1.1-.15 1.44-.45.34-.3.51-.72.51-1.26 0-.54-.17-.95-.51-1.23-.34-.28-.82-.42-1.44-.42h-1.8v3.36Z"
    fill="#fff"
  />
  <path
    d="M20.4 22V10h2.2v12h-2.2Z"
    fill="#fff"
    opacity="0.92"
  />
  <defs>
    <linearGradient id="op-bg" x1="4" y1="2" x2="28" y2="30" gradientUnits="userSpaceOnUse">
      <stop stop-color="#4B7DFF"/>
      <stop offset="0.55" stop-color="#2F62FF"/>
      <stop offset="1" stop-color="#1E3A9C"/>
    </linearGradient>
  </defs>
</svg>